<svg xmlns="http://www.w3.org/2000/svg" xmlns:xlink="http://www.w3.org/1999/xlink" width="500" zoomAndPan="magnify" viewBox="0 0 375 374.999991" height="500" preserveAspectRatio="xMidYMid meet" version="1.0"><defs><g/><clipPath id="eb0fd8bb5f"><path d="M 138.5 81.367188 L 236 81.367188 L 236 207.367188 L 138.5 207.367188 Z M 138.5 81.367188 " clip-rule="nonzero"/></clipPath></defs><path fill="#ff914d" d="M 190.195312 201.789062 C 190.535156 197.0625 189.679688 192.234375 189.613281 187.507812 C 189.523438 181.472656 188.539062 175.492188 188.5 169.453125 C 187.839844 169.429688 187.179688 169.40625 186.527344 169.40625 C 185.800781 169.40625 185.074219 169.40625 184.347656 169.394531 C 184.328125 169.449219 184.3125 169.503906 184.296875 169.5625 C 184.277344 169.632812 184.257812 169.699219 184.230469 169.765625 C 184.292969 169.972656 184.316406 170.183594 184.296875 170.398438 C 184.058594 173.195312 184.875 176.039062 184.875 178.851562 C 184.875 181.808594 184.890625 184.765625 184.875 187.722656 C 184.839844 193.125 184.605469 198.519531 184.171875 203.910156 C 184.910156 203.910156 185.640625 203.910156 186.375 203.886719 C 187.246094 203.875 188.113281 203.804688 188.972656 203.683594 C 189.230469 203.652344 189.480469 203.601562 189.726562 203.523438 C 189.8125 203.496094 189.890625 203.464844 189.972656 203.425781 C 190.148438 203.230469 190.359375 203.089844 190.605469 203 C 190.289062 202.65625 190.152344 202.253906 190.195312 201.789062 Z M 190.195312 201.789062 " fill-opacity="1" fill-rule="nonzero"/><path fill="#10b5b8" d="M 161.386719 99.691406 C 160.238281 99.726562 159.296875 100.046875 158.609375 101.035156 C 158.132812 101.714844 157.941406 102.464844 158.035156 103.289062 C 158.488281 103.449219 158.761719 103.769531 158.847656 104.242188 C 159.664062 107.605469 165.457031 105.851562 165.734375 102.929688 C 165.9375 100.816406 163.128906 99.636719 161.386719 99.691406 Z M 161.386719 99.691406 " fill-opacity="1" fill-rule="nonzero"/><path fill="#ff914d" d="M 179.664062 169.15625 C 178.484375 169.261719 177.09375 169.523438 175.84375 169.335938 C 175.792969 169.46875 175.746094 169.605469 175.707031 169.742188 C 175.539062 170.359375 175.390625 170.976562 175.25 171.601562 C 175.042969 172.636719 174.769531 173.65625 174.4375 174.660156 C 173.144531 178.296875 171.988281 181.996094 170.480469 185.554688 C 169.027344 188.984375 167.554688 192.375 165.929688 195.734375 C 164.632812 198.410156 163.355469 201.09375 162.234375 203.847656 C 165.152344 203.800781 168.09375 203.757812 170.96875 204.214844 C 173.238281 197.878906 174.808594 191.339844 176.976562 184.976562 C 178.738281 179.808594 179.035156 174.230469 181.082031 169.164062 C 180.609375 169.121094 180.136719 169.121094 179.664062 169.15625 Z M 179.664062 169.15625 " fill-opacity="1" fill-rule="nonzero"/><path fill="#107173" d="M 178.871094 94.3125 C 176.21875 88.605469 169.730469 84.828125 163.503906 84.691406 C 157.09375 84.550781 152.058594 88.304688 148.5625 93.445312 C 146.375 96.6875 144.726562 100.578125 144.316406 104.472656 C 144.136719 106.160156 144.21875 107.835938 144.554688 109.503906 C 144.894531 111.167969 145.472656 112.742188 146.296875 114.226562 C 146.4375 114.390625 146.539062 114.578125 146.605469 114.785156 C 146.816406 115.144531 147.035156 115.5 147.273438 115.851562 C 147.464844 116.117188 147.558594 116.417969 147.550781 116.746094 C 148.785156 118.609375 150.78125 119.976562 152.761719 120.945312 C 155.40625 122.246094 158.484375 123.28125 161.464844 123.246094 C 168.546875 123.164062 175.199219 118.722656 178.230469 112.335938 C 180.78125 106.945312 181.425781 99.824219 178.871094 94.3125 Z M 156.820312 107.152344 C 156.769531 107.109375 156.71875 107.058594 156.671875 107.011719 C 153.515625 103.546875 155.175781 97.699219 159.929688 96.773438 C 163.421875 96.097656 168.386719 98.125 168.761719 102.101562 C 169.324219 108.050781 160.027344 111.535156 156.820312 107.152344 Z M 156.820312 107.152344 " fill-opacity="1" fill-rule="nonzero"/><path fill="#10b5b8" d="M 203.734375 99.691406 C 202.585938 99.726562 201.644531 100.046875 200.953125 101.035156 C 200.476562 101.714844 200.285156 102.464844 200.382812 103.289062 C 200.835938 103.449219 201.109375 103.769531 201.195312 104.242188 C 202.019531 107.605469 207.824219 105.863281 208.101562 102.929688 C 208.289062 100.816406 205.484375 99.636719 203.734375 99.691406 Z M 203.734375 99.691406 " fill-opacity="1" fill-rule="nonzero"/><path fill="#107173" d="M 221.222656 94.3125 C 218.570312 88.605469 212.09375 84.828125 205.859375 84.691406 C 199.449219 84.550781 194.414062 88.304688 190.917969 93.445312 C 188.71875 96.6875 187.078125 100.578125 186.667969 104.472656 C 186.488281 106.160156 186.566406 107.835938 186.902344 109.503906 C 187.238281 111.167969 187.816406 112.742188 188.636719 114.230469 C 188.78125 114.394531 188.882812 114.578125 188.945312 114.789062 C 189.15625 115.148438 189.378906 115.503906 189.617188 115.855469 C 189.808594 116.121094 189.902344 116.417969 189.894531 116.746094 C 191.132812 118.609375 193.125 119.976562 195.105469 120.949219 C 197.75 122.246094 200.828125 123.285156 203.808594 123.25 C 210.890625 123.167969 217.542969 118.726562 220.578125 112.339844 C 223.136719 106.945312 223.78125 99.824219 221.222656 94.3125 Z M 199.171875 107.152344 C 199.121094 107.109375 199.074219 107.0625 199.027344 107.011719 C 195.867188 103.546875 197.535156 97.699219 202.28125 96.773438 C 205.777344 96.097656 210.738281 98.125 211.113281 102.101562 C 211.679688 108.050781 202.378906 111.535156 199.171875 107.152344 Z M 199.171875 107.152344 " fill-opacity="1" fill-rule="nonzero"/><path fill="#107173" d="M 144.597656 137.6875 L 144.542969 137.6875 C 144.203125 137.71875 143.890625 137.640625 143.605469 137.445312 L 143.433594 137.445312 C 143.046875 137.460938 142.664062 137.492188 142.285156 137.527344 L 141.753906 137.585938 C 141.628906 138.609375 141.792969 139.640625 141.925781 140.671875 C 142.886719 140.621094 143.914062 140.605469 144.789062 140.871094 C 144.753906 139.816406 144.707031 138.75 144.597656 137.6875 Z M 144.597656 137.6875 " fill-opacity="1" fill-rule="nonzero"/><path fill="#107173" d="M 215.488281 122.632812 C 210.824219 125.746094 205.097656 127.082031 199.554688 125.757812 C 197.621094 125.304688 195.761719 124.65625 193.964844 123.8125 C 193.691406 124.195312 193.320312 124.371094 192.851562 124.347656 L 192.632812 124.347656 C 185.335938 124.347656 177.929688 123.976562 170.667969 124.902344 C 170.246094 124.972656 169.875 124.863281 169.554688 124.578125 C 167.613281 125.433594 165.585938 125.964844 163.472656 126.164062 C 161.359375 126.367188 159.269531 126.230469 157.199219 125.757812 C 154.9375 125.230469 152.773438 124.429688 150.710938 123.359375 C 150.042969 123.914062 148.921875 123.960938 148.414062 123.105469 C 148.292969 123.140625 148.171875 123.183594 148.054688 123.234375 C 147.859375 123.3125 147.683594 123.417969 147.523438 123.550781 C 146.863281 124.144531 146.269531 124.753906 146.082031 125.65625 C 145.710938 127.445312 146.152344 129.109375 146.539062 130.851562 C 146.96875 132.769531 147.296875 134.703125 147.519531 136.652344 C 147.96875 140.78125 148.011719 144.914062 147.640625 149.050781 C 147.359375 152.085938 146.4375 156.316406 150.078125 157.574219 C 153.074219 158.605469 156.476562 157.789062 159.515625 157.5 C 168.316406 156.664062 176.988281 158.222656 185.769531 158.535156 C 190.296875 158.695312 194.882812 158.566406 199.410156 158.394531 C 203.457031 158.242188 207.753906 158.582031 211.644531 157.285156 C 212.789062 156.578125 213.898438 155.675781 214.148438 154.277344 C 214.410156 152.820312 214.113281 151.339844 213.816406 149.90625 C 213.722656 149.554688 213.773438 149.226562 213.96875 148.917969 C 213.910156 148.863281 213.832031 148.78125 213.753906 148.699219 C 213.371094 148.414062 213.195312 148.03125 213.226562 147.554688 C 213.207031 147.4375 213.191406 147.316406 213.171875 147.199219 C 213.007812 146.210938 212.859375 145.21875 212.753906 144.21875 C 212.542969 142.226562 212.433594 140.230469 212.425781 138.230469 C 212.421875 138.035156 212.453125 137.847656 212.519531 137.664062 C 212.585938 137.480469 212.683594 137.316406 212.8125 137.171875 C 212.941406 137.023438 213.09375 136.90625 213.265625 136.816406 C 213.4375 136.726562 213.621094 136.671875 213.816406 136.648438 C 214.53125 135.5 215.878906 134.554688 217.167969 134.453125 C 217.257812 130.453125 217.496094 126.191406 215.488281 122.632812 Z M 215.488281 122.632812 " fill-opacity="1" fill-rule="nonzero"/><path fill="#107173" d="M 231.683594 121.660156 C 231.597656 121.710938 231.527344 121.757812 231.496094 121.78125 C 230.929688 122.207031 230.394531 122.667969 229.894531 123.171875 C 228.414062 124.628906 227.023438 126.167969 225.722656 127.792969 C 224.292969 129.507812 223.007812 131.324219 221.871094 133.246094 C 221.402344 134.023438 221.007812 134.835938 220.679688 135.679688 C 220.542969 136.070312 220.472656 136.472656 220.46875 136.890625 C 220.617188 138.34375 218.984375 138.835938 218.046875 138.214844 C 217.640625 138.148438 217.332031 137.9375 217.121094 137.585938 L 217.105469 137.5625 C 217.003906 137.625 216.902344 137.695312 216.808594 137.769531 C 216.808594 137.769531 216.765625 137.816406 216.703125 137.875 C 216.640625 137.933594 216.550781 138.046875 216.476562 138.136719 C 216.476562 138.152344 216.457031 138.183594 216.421875 138.242188 C 216.222656 138.640625 215.910156 138.894531 215.480469 139.003906 C 215.53125 141.597656 215.765625 144.171875 216.179688 146.734375 C 216.242188 146.796875 216.300781 146.863281 216.351562 146.933594 C 216.414062 147.015625 216.46875 147.105469 216.511719 147.195312 C 218.007812 147.296875 217.875 146.226562 217.75 144.972656 C 217.605469 143.421875 217.335938 141.914062 217.441406 140.351562 C 217.578125 138.386719 220.578125 138.996094 220.445312 140.933594 C 220.304688 143.003906 221.191406 145.074219 220.75 147.148438 C 220.636719 147.761719 220.394531 148.320312 220.019531 148.816406 C 220.128906 148.828125 220.242188 148.851562 220.347656 148.886719 C 223.789062 149.964844 225.605469 153.078125 227.949219 155.558594 C 228.953125 156.636719 230.074219 157.867188 231.25 158.753906 C 231.878906 159.226562 231.851562 159.109375 231.910156 158.335938 C 231.960938 157.671875 231.890625 156.996094 231.878906 156.332031 C 231.855469 155.820312 232.046875 155.40625 232.453125 155.089844 C 232.507812 149.53125 232.695312 143.984375 232.710938 138.433594 C 232.726562 132.90625 233.46875 126.960938 231.683594 121.660156 Z M 231.683594 121.660156 " fill-opacity="1" fill-rule="nonzero"/><path fill="#ff914d" d="M 203.992188 185.464844 C 201.039062 180.460938 198.804688 174.75 194.855469 170.40625 C 194.5625 170.09375 194.421875 169.722656 194.433594 169.292969 C 193.480469 169.457031 192.523438 169.539062 191.554688 169.535156 C 191.570312 170.621094 191.613281 171.710938 191.675781 172.792969 C 191.871094 172.773438 192.0625 172.792969 192.25 172.851562 C 192.4375 172.910156 192.601562 173.003906 192.75 173.132812 C 192.894531 173.261719 193.011719 173.417969 193.09375 173.59375 C 193.175781 173.773438 193.214844 173.960938 193.21875 174.15625 C 193.300781 175.859375 194.296875 177.375 195.058594 178.851562 C 195.9375 180.558594 196.539062 182.382812 197.222656 184.175781 C 198.703125 188.054688 200.238281 191.894531 202.140625 195.589844 C 202.820312 196.878906 203.402344 198.214844 203.878906 199.59375 C 204.078125 200.214844 204.261719 200.847656 204.5 201.453125 C 204.628906 201.800781 204.789062 202.140625 204.976562 202.460938 C 206.101562 202.628906 207.371094 201.773438 208.429688 201.46875 C 209.574219 201.183594 210.738281 201.058594 211.921875 201.097656 C 209.136719 195.949219 206.964844 190.496094 203.992188 185.464844 Z M 203.992188 185.464844 " fill-opacity="1" fill-rule="nonzero"/><path fill="#ff914d" d="M 195.234375 162.011719 C 195.140625 161.871094 195.070312 161.722656 195.019531 161.5625 C 192.375 161.597656 189.738281 161.605469 187.078125 161.609375 C 182.988281 161.609375 178.933594 161.214844 174.875 160.867188 C 174.957031 161.570312 175.019531 162.285156 175.113281 162.988281 C 175.183594 163.757812 175.335938 164.511719 175.566406 165.246094 C 175.636719 165.5 175.742188 165.742188 175.871094 165.96875 C 175.980469 166.132812 176.167969 166.25 176.042969 166.25 C 177.328125 166.46875 178.667969 166.097656 179.960938 166.066406 C 181.910156 166.019531 183.886719 166.34375 185.84375 166.34375 C 188.519531 166.34375 191.253906 166.695312 193.910156 166.269531 C 194.308594 166.242188 194.691406 166.140625 195.050781 165.960938 C 194.96875 165.992188 195.144531 165.738281 195.164062 165.617188 C 195.230469 165.308594 195.277344 164.996094 195.300781 164.679688 C 195.332031 163.789062 195.308594 162.898438 195.234375 162.011719 Z M 195.234375 162.011719 " fill-opacity="1" fill-rule="nonzero"/><path fill="#000000" d="M 211.113281 102.101562 C 210.738281 98.125 205.777344 96.097656 202.28125 96.773438 C 197.535156 97.699219 195.867188 103.546875 199.027344 107.011719 C 199.074219 107.0625 199.121094 107.109375 199.171875 107.152344 C 202.378906 111.535156 211.679688 108.050781 211.113281 102.101562 Z M 208.09375 102.9375 C 207.8125 105.859375 202.019531 107.609375 201.203125 104.25 C 201.117188 103.773438 200.84375 103.457031 200.390625 103.296875 C 200.296875 102.472656 200.484375 101.71875 200.964844 101.039062 C 201.644531 100.050781 202.585938 99.734375 203.742188 99.699219 C 205.484375 99.636719 208.289062 100.816406 208.101562 102.929688 Z M 208.09375 102.9375 " fill-opacity="1" fill-rule="nonzero"/><g clip-path="url(#eb0fd8bb5f)"><path fill="#000000" d="M 234.566406 120.648438 C 234.492188 120.390625 234.355469 120.175781 234.15625 119.996094 C 233.953125 119.820312 233.71875 119.710938 233.457031 119.671875 C 233.390625 119.371094 233.25 119.109375 233.03125 118.894531 C 231.792969 117.636719 229.972656 119.046875 228.988281 119.886719 C 227.171875 121.480469 225.503906 123.214844 223.984375 125.089844 C 222.625 126.703125 221.363281 128.394531 220.203125 130.15625 C 220.105469 126.933594 219.664062 123.777344 217.976562 120.855469 C 217.957031 120.820312 217.933594 120.789062 217.914062 120.757812 C 226.945312 112.714844 229.085938 96.78125 220.335938 87.789062 C 216.765625 84.152344 211.4375 82.003906 206.40625 81.671875 C 201.65625 81.367188 197.164062 82.96875 193.515625 85.984375 C 189.210938 89.546875 186.261719 94.507812 184.558594 99.78125 C 184.117188 101.117188 183.820312 102.484375 183.667969 103.882812 C 183.511719 105.277344 183.503906 106.675781 183.640625 108.078125 C 183.777344 109.476562 184.058594 110.847656 184.484375 112.1875 C 184.90625 113.527344 185.464844 114.8125 186.15625 116.035156 C 186.863281 118.140625 188.21875 119.871094 189.917969 121.273438 C 184.875 121.230469 179.792969 121.105469 174.757812 121.433594 L 174.785156 121.414062 C 184.464844 113.628906 186.96875 97.035156 177.96875 87.789062 C 174.410156 84.144531 169.085938 81.996094 164.066406 81.671875 C 159.320312 81.367188 154.828125 82.96875 151.179688 85.984375 C 146.855469 89.558594 143.90625 94.515625 142.203125 99.789062 C 141.761719 101.125 141.464844 102.492188 141.3125 103.890625 C 141.15625 105.289062 141.148438 106.6875 141.285156 108.085938 C 141.425781 109.484375 141.707031 110.855469 142.128906 112.195312 C 142.554688 113.539062 143.113281 114.820312 143.804688 116.042969 C 144.414062 117.800781 145.40625 119.3125 146.769531 120.578125 C 145.980469 120.964844 145.269531 121.464844 144.632812 122.070312 C 142.203125 124.492188 142.757812 128.429688 143.539062 131.390625 C 143.800781 132.386719 144.011719 133.402344 144.183594 134.429688 C 142.902344 134.210938 141.234375 134.625 140.140625 134.644531 C 138.980469 134.664062 138.585938 135.722656 138.859375 136.589844 C 138.804688 136.722656 138.773438 136.859375 138.753906 137.003906 C 138.523438 138.839844 138.960938 140.589844 139.011719 142.417969 C 139.03125 143.285156 139.84375 143.839844 140.652344 143.828125 C 141.339844 143.8125 143.644531 143.308594 143.988281 143.992188 C 144.152344 144.359375 144.433594 144.589844 144.820312 144.691406 C 144.773438 146.386719 144.582031 148.074219 144.542969 149.769531 C 144.519531 151.507812 144.1875 153.207031 144.378906 154.949219 C 145.246094 162.734375 155.074219 160.953125 160.375 160.507812 C 164.195312 160.1875 167.988281 160.34375 171.773438 160.628906 C 172.097656 162.792969 171.960938 165.757812 173.164062 167.640625 C 172.355469 169.058594 172.183594 171.316406 171.886719 172.5625 C 171.070312 175.984375 169.613281 179.429688 168.335938 182.710938 C 165.421875 190.195312 161.367188 197.191406 158.605469 204.734375 C 158.195312 205.863281 158.851562 206.945312 160.09375 206.945312 C 163.945312 206.945312 167.851562 206.652344 171.640625 207.476562 C 172.25 207.609375 173.070312 207.273438 173.308594 206.65625 C 175.714844 200.199219 177.621094 193.585938 179.542969 186.972656 C 180.410156 183.984375 181.179688 181.03125 181.8125 177.980469 L 181.8125 178.007812 C 181.867188 180.972656 181.8125 183.941406 181.8125 186.90625 C 181.8125 192.988281 181.539062 199.0625 181 205.125 C 180.90625 206.164062 181.554688 206.9375 182.617188 206.945312 C 184.441406 206.945312 186.261719 206.992188 188.082031 206.859375 C 189.828125 206.726562 191.992188 206.492188 192.621094 204.597656 C 192.78125 204.195312 192.742188 203.8125 192.496094 203.453125 C 192.703125 203.355469 192.871094 203.207031 192.992188 203.011719 C 193.113281 202.816406 193.175781 202.601562 193.175781 202.371094 C 193.527344 197.515625 192.671875 192.640625 192.644531 187.785156 C 192.644531 185.203125 192.445312 182.632812 192.226562 180.066406 C 193.109375 181.890625 193.777344 183.78125 194.503906 185.679688 C 195.371094 187.957031 196.273438 190.21875 197.242188 192.457031 C 198.148438 194.558594 199.296875 196.539062 200.191406 198.640625 C 201.167969 200.941406 201.621094 205.054688 204.640625 205.507812 C 206.203125 205.742188 207.75 204.910156 209.183594 204.421875 C 210.179688 204.085938 211.488281 204.191406 212.523438 204.167969 C 213.503906 204.148438 214.46875 204.34375 215.167969 203.511719 C 215.347656 203.289062 215.457031 203.035156 215.496094 202.75 C 215.707031 202.378906 215.75 201.984375 215.628906 201.574219 C 215.515625 201.214844 215.339844 200.890625 215.097656 200.605469 C 211.972656 195.125 209.65625 189.230469 206.492188 183.769531 C 203.472656 178.542969 201.050781 172.832031 196.992188 168.296875 C 198.703125 166.8125 198.382812 163.800781 198.234375 161.503906 C 199.066406 161.480469 199.882812 161.453125 200.707031 161.417969 C 204.753906 161.253906 208.847656 161.488281 212.742188 160.148438 C 212.910156 160.09375 213.066406 160.011719 213.207031 159.902344 C 214.921875 158.859375 216.378906 157.441406 216.957031 155.453125 C 217.460938 153.730469 217.261719 151.941406 216.925781 150.203125 C 217.523438 150.175781 218.09375 150.046875 218.644531 149.816406 C 218.585938 150.027344 218.570312 150.238281 218.597656 150.453125 C 218.625 150.671875 218.691406 150.875 218.796875 151.0625 C 218.902344 151.253906 219.042969 151.417969 219.210938 151.554688 C 219.378906 151.691406 219.570312 151.789062 219.777344 151.851562 C 221.648438 152.4375 223.066406 154.441406 224.261719 155.878906 C 225.503906 157.375 226.871094 158.6875 228.226562 160.074219 C 229.484375 161.367188 231.359375 162.796875 233.207031 161.714844 C 234.398438 161.019531 234.796875 159.902344 234.921875 158.6875 C 235.316406 158.375 235.507812 157.964844 235.496094 157.460938 C 235.496094 151.027344 235.746094 144.601562 235.773438 138.167969 C 235.789062 132.371094 236.460938 126.238281 234.566406 120.648438 Z M 141.925781 140.683594 C 141.792969 139.648438 141.628906 138.617188 141.753906 137.59375 L 142.285156 137.539062 C 142.664062 137.5 143.046875 137.46875 143.433594 137.453125 L 143.605469 137.453125 C 143.890625 137.648438 144.203125 137.726562 144.542969 137.695312 L 144.597656 137.695312 C 144.691406 138.757812 144.753906 139.824219 144.789062 140.886719 C 143.914062 140.617188 142.886719 140.617188 141.925781 140.683594 Z M 189.898438 116.742188 C 189.902344 116.414062 189.8125 116.117188 189.617188 115.847656 C 189.382812 115.5 189.15625 115.144531 188.949219 114.78125 C 188.886719 114.574219 188.785156 114.386719 188.640625 114.226562 C 187.820312 112.738281 187.242188 111.164062 186.90625 109.5 C 186.570312 107.835938 186.492188 106.160156 186.667969 104.472656 C 187.078125 100.578125 188.71875 96.667969 190.917969 93.441406 C 194.414062 88.308594 199.449219 84.542969 205.859375 84.6875 C 212.09375 84.824219 218.570312 88.601562 221.222656 94.3125 C 223.78125 99.820312 223.136719 106.945312 220.578125 112.332031 C 217.546875 118.726562 210.894531 123.160156 203.8125 123.238281 C 200.832031 123.277344 197.753906 122.238281 195.109375 120.941406 C 193.128906 119.972656 191.140625 118.605469 189.898438 116.742188 Z M 146.605469 114.796875 C 146.539062 114.589844 146.4375 114.402344 146.296875 114.238281 C 145.472656 112.75 144.890625 111.175781 144.554688 109.507812 C 144.214844 107.839844 144.136719 106.164062 144.316406 104.472656 C 144.726562 100.578125 146.375 96.6875 148.5625 93.445312 C 152.058594 88.3125 157.09375 84.546875 163.503906 84.691406 C 169.742188 84.828125 176.21875 88.605469 178.871094 94.3125 C 181.425781 99.824219 180.78125 106.945312 178.222656 112.335938 C 175.195312 118.730469 168.539062 123.160156 161.457031 123.242188 C 158.476562 123.277344 155.398438 122.242188 152.757812 120.941406 C 150.773438 119.972656 148.78125 118.605469 147.542969 116.742188 C 147.550781 116.414062 147.457031 116.117188 147.265625 115.847656 C 147.035156 115.5 146.816406 115.144531 146.605469 114.78125 Z M 176.976562 184.980469 C 174.808594 191.34375 173.238281 197.886719 170.96875 204.222656 C 168.09375 203.761719 165.152344 203.808594 162.234375 203.851562 C 163.347656 201.097656 164.632812 198.417969 165.929688 195.738281 C 167.554688 192.382812 169.027344 188.988281 170.480469 185.558594 C 171.988281 182 173.144531 178.300781 174.4375 174.664062 C 174.769531 173.664062 175.042969 172.644531 175.25 171.605469 C 175.390625 170.984375 175.53125 170.363281 175.707031 169.75 C 175.746094 169.613281 175.792969 169.476562 175.84375 169.34375 C 177.09375 169.53125 178.484375 169.269531 179.664062 169.164062 C 180.136719 169.125 180.609375 169.125 181.082031 169.164062 C 179.035156 174.238281 178.738281 179.824219 176.976562 184.980469 Z M 189.972656 203.414062 C 189.890625 203.449219 189.8125 203.484375 189.726562 203.511719 C 189.480469 203.585938 189.230469 203.640625 188.972656 203.671875 C 188.113281 203.792969 187.246094 203.859375 186.375 203.875 C 185.640625 203.902344 184.910156 203.902344 184.171875 203.894531 C 184.605469 198.507812 184.839844 193.113281 184.875 187.707031 C 184.894531 184.75 184.875 181.792969 184.875 178.839844 C 184.875 176.023438 184.058594 173.183594 184.296875 170.382812 C 184.316406 170.167969 184.292969 169.957031 184.230469 169.753906 C 184.257812 169.683594 184.277344 169.617188 184.296875 169.550781 C 184.3125 169.492188 184.328125 169.433594 184.347656 169.378906 C 185.074219 169.378906 185.800781 169.378906 186.527344 169.394531 C 187.179688 169.394531 187.839844 169.414062 188.5 169.441406 C 188.535156 175.476562 189.519531 181.457031 189.613281 187.496094 C 189.679688 192.222656 190.535156 197.054688 190.195312 201.773438 C 190.152344 202.238281 190.289062 202.640625 190.605469 202.984375 C 190.359375 203.074219 190.148438 203.21875 189.972656 203.414062 Z M 185.855469 166.339844 C 183.910156 166.339844 181.917969 166.019531 179.972656 166.0625 C 178.679688 166.09375 177.339844 166.464844 176.050781 166.246094 C 176.179688 166.246094 175.992188 166.125 175.882812 165.96875 C 175.75 165.738281 175.648438 165.5 175.578125 165.246094 C 175.347656 164.507812 175.195312 163.753906 175.125 162.988281 C 175.03125 162.28125 174.96875 161.570312 174.886719 160.863281 C 178.945312 161.214844 183 161.605469 187.089844 161.605469 C 189.734375 161.605469 192.386719 161.605469 195.03125 161.558594 C 195.082031 161.71875 195.152344 161.867188 195.242188 162.007812 C 195.324219 162.894531 195.34375 163.785156 195.3125 164.675781 C 195.289062 164.988281 195.246094 165.300781 195.179688 165.613281 C 195.15625 165.730469 194.980469 165.988281 195.0625 165.953125 C 194.703125 166.132812 194.324219 166.238281 193.921875 166.265625 C 191.253906 166.695312 188.519531 166.34375 185.855469 166.339844 Z M 204.003906 185.464844 C 206.972656 190.496094 209.144531 195.949219 211.933594 201.085938 C 210.75 201.046875 209.585938 201.171875 208.441406 201.457031 C 207.382812 201.761719 206.113281 202.617188 204.988281 202.449219 C 204.800781 202.128906 204.640625 201.792969 204.511719 201.441406 C 204.273438 200.835938 204.089844 200.203125 203.886719 199.582031 C 203.414062 198.203125 202.832031 196.871094 202.148438 195.578125 C 200.25 191.882812 198.714844 188.042969 197.234375 184.164062 C 196.550781 182.371094 195.945312 180.546875 195.070312 178.839844 C 194.304688 177.363281 193.3125 175.847656 193.230469 174.144531 C 193.226562 173.949219 193.183594 173.761719 193.105469 173.585938 C 193.023438 173.40625 192.90625 173.253906 192.761719 173.121094 C 192.613281 172.992188 192.445312 172.898438 192.261719 172.839844 C 192.074219 172.78125 191.882812 172.761719 191.6875 172.78125 C 191.625 171.699219 191.582031 170.609375 191.566406 169.523438 C 192.53125 169.527344 193.492188 169.445312 194.441406 169.28125 C 194.433594 169.710938 194.574219 170.082031 194.867188 170.394531 C 198.804688 174.75 201.039062 180.457031 203.992188 185.464844 Z M 213.824219 136.652344 C 213.628906 136.675781 213.445312 136.730469 213.273438 136.820312 C 213.101562 136.910156 212.949219 137.027344 212.820312 137.171875 C 212.695312 137.320312 212.59375 137.484375 212.527344 137.667969 C 212.460938 137.847656 212.429688 138.039062 212.433594 138.230469 C 212.4375 140.238281 212.542969 142.238281 212.746094 144.234375 C 212.851562 145.230469 213 146.222656 213.164062 147.214844 C 213.183594 147.328125 213.199219 147.449219 213.21875 147.570312 C 213.1875 148.046875 213.363281 148.425781 213.746094 148.710938 C 213.824219 148.796875 213.902344 148.875 213.960938 148.929688 C 213.765625 149.238281 213.714844 149.570312 213.804688 149.921875 C 214.105469 151.351562 214.402344 152.835938 214.140625 154.292969 C 213.890625 155.683594 212.78125 156.59375 211.636719 157.296875 C 207.746094 158.597656 203.453125 158.257812 199.402344 158.410156 C 194.875 158.578125 190.289062 158.710938 185.757812 158.550781 C 176.980469 158.238281 168.308594 156.667969 159.507812 157.511719 C 156.449219 157.789062 153.066406 158.625 150.070312 157.585938 C 146.429688 156.332031 147.355469 152.097656 147.628906 149.066406 C 148 144.929688 147.960938 140.796875 147.511719 136.667969 C 147.289062 134.714844 146.960938 132.78125 146.53125 130.867188 C 146.144531 129.125 145.695312 127.460938 146.074219 125.671875 C 146.257812 124.765625 146.855469 124.160156 147.511719 123.566406 C 147.675781 123.433594 147.851562 123.328125 148.042969 123.25 C 148.164062 123.199219 148.285156 123.15625 148.40625 123.117188 C 148.914062 123.976562 150.035156 123.9375 150.703125 123.375 C 152.765625 124.445312 154.929688 125.242188 157.191406 125.769531 C 159.261719 126.246094 161.351562 126.378906 163.464844 126.179688 C 165.578125 125.976562 167.605469 125.449219 169.546875 124.589844 C 169.863281 124.875 170.234375 124.984375 170.660156 124.917969 C 177.910156 123.988281 185.316406 124.359375 192.625 124.359375 L 192.84375 124.359375 C 193.3125 124.386719 193.683594 124.207031 193.957031 123.828125 C 195.75 124.667969 197.613281 125.316406 199.546875 125.773438 C 205.089844 127.09375 210.816406 125.773438 215.480469 122.648438 C 217.488281 126.207031 217.25 130.464844 217.148438 134.46875 C 215.886719 134.558594 214.527344 135.503906 213.8125 136.652344 Z M 232.730469 138.40625 C 232.714844 143.964844 232.527344 149.511719 232.472656 155.0625 C 232.066406 155.378906 231.875 155.792969 231.898438 156.304688 C 231.898438 156.96875 231.980469 157.644531 231.929688 158.308594 C 231.871094 159.082031 231.898438 159.195312 231.269531 158.722656 C 230.09375 157.835938 228.972656 156.609375 227.96875 155.53125 C 225.625 153.03125 223.808594 149.925781 220.367188 148.859375 C 220.261719 148.824219 220.148438 148.800781 220.039062 148.789062 C 220.414062 148.292969 220.65625 147.734375 220.769531 147.121094 C 221.210938 145.042969 220.324219 142.976562 220.464844 140.90625 C 220.597656 138.960938 217.597656 138.359375 217.460938 140.324219 C 217.355469 141.886719 217.625 143.394531 217.769531 144.945312 C 217.894531 146.210938 218.027344 147.28125 216.53125 147.167969 C 216.488281 147.074219 216.433594 146.988281 216.371094 146.90625 C 216.320312 146.835938 216.261719 146.769531 216.199219 146.707031 C 215.785156 144.148438 215.550781 141.574219 215.5 138.984375 C 215.929688 138.875 216.242188 138.625 216.441406 138.226562 C 216.476562 138.164062 216.492188 138.136719 216.496094 138.121094 C 216.570312 138.03125 216.644531 137.941406 216.722656 137.859375 C 216.800781 137.777344 216.816406 137.765625 216.828125 137.753906 C 216.921875 137.679688 217.023438 137.609375 217.125 137.546875 L 217.140625 137.566406 C 217.351562 137.921875 217.660156 138.132812 218.066406 138.199219 C 219.003906 138.828125 220.636719 138.328125 220.488281 136.871094 C 220.492188 136.457031 220.5625 136.054688 220.699219 135.664062 C 221.027344 134.816406 221.421875 134.007812 221.890625 133.230469 C 223.027344 131.308594 224.3125 129.492188 225.742188 127.773438 C 227.042969 126.152344 228.433594 124.613281 229.914062 123.152344 C 230.414062 122.652344 230.949219 122.191406 231.515625 121.761719 C 231.546875 121.742188 231.617188 121.695312 231.703125 121.644531 C 233.46875 126.960938 232.726562 132.90625 232.710938 138.394531 Z M 232.730469 138.40625 " fill-opacity="1" fill-rule="nonzero"/></g><path fill="#000000" d="M 168.761719 102.101562 C 168.386719 98.125 163.421875 96.097656 159.929688 96.773438 C 155.175781 97.699219 153.515625 103.546875 156.671875 107.011719 C 156.71875 107.058594 156.769531 107.109375 156.820312 107.152344 C 160.027344 111.535156 169.324219 108.050781 168.761719 102.101562 Z M 165.738281 102.9375 C 165.457031 105.859375 159.667969 107.609375 158.851562 104.25 C 158.761719 103.773438 158.492188 103.457031 158.039062 103.296875 C 157.941406 102.472656 158.132812 101.71875 158.609375 101.039062 C 159.289062 100.050781 160.230469 99.734375 161.390625 99.699219 C 163.128906 99.636719 165.9375 100.816406 165.738281 102.929688 Z M 165.738281 102.9375 " fill-opacity="1" fill-rule="nonzero"/><g fill="#000000" fill-opacity="1"><g transform="translate(121.123761, 255.118197)"><g><path d="M 20.609375 -26.046875 C 19.785156 -24.648438 18.898438 -23.269531 17.953125 -21.90625 C 17.003906 -20.550781 15.910156 -19.335938 14.671875 -18.265625 C 17.304688 -15.234375 18.804688 -11.644531 19.171875 -7.5 C 19.222656 -6.726562 19.0625 -6.101562 18.6875 -5.625 C 18.320312 -5.144531 17.84375 -4.828125 17.25 -4.671875 C 16.65625 -4.523438 16.039062 -4.523438 15.40625 -4.671875 C 14.78125 -4.828125 14.234375 -5.144531 13.765625 -5.625 C 13.296875 -6.101562 13.035156 -6.726562 12.984375 -7.5 C 12.847656 -8.988281 12.445312 -10.390625 11.78125 -11.703125 C 11.125 -13.023438 10.257812 -14.179688 9.1875 -15.171875 C 8.914062 -11.679688 8.546875 -8.234375 8.078125 -4.828125 C 7.992188 -4.273438 7.738281 -3.8125 7.3125 -3.4375 C 6.882812 -3.070312 6.390625 -2.8125 5.828125 -2.65625 C 5.265625 -2.507812 4.738281 -2.503906 4.25 -2.640625 C 3.363281 -2.890625 2.753906 -3.375 2.421875 -4.09375 C 2.097656 -4.820312 1.992188 -5.601562 2.109375 -6.4375 C 2.628906 -10.332031 3.019531 -14.25 3.28125 -18.1875 C 3.539062 -22.132812 3.679688 -26.070312 3.703125 -30 C 3.703125 -30.800781 3.910156 -31.441406 4.328125 -31.921875 C 4.742188 -32.398438 5.257812 -32.710938 5.875 -32.859375 C 6.488281 -33.015625 7.101562 -33.015625 7.71875 -32.859375 C 8.34375 -32.710938 8.859375 -32.398438 9.265625 -31.921875 C 9.679688 -31.441406 9.890625 -30.800781 9.890625 -30 C 9.859375 -28.65625 9.828125 -27.316406 9.796875 -25.984375 C 9.773438 -24.648438 9.722656 -23.3125 9.640625 -21.96875 C 10.460938 -22.46875 11.21875 -23.132812 11.90625 -23.96875 C 12.59375 -24.800781 13.210938 -25.6875 13.765625 -26.625 C 14.316406 -27.5625 14.8125 -28.398438 15.25 -29.140625 C 15.664062 -29.828125 16.164062 -30.273438 16.75 -30.484375 C 17.34375 -30.691406 17.945312 -30.710938 18.5625 -30.546875 C 19.1875 -30.378906 19.722656 -30.066406 20.171875 -29.609375 C 20.628906 -29.160156 20.910156 -28.625 21.015625 -28 C 21.128906 -27.382812 20.992188 -26.734375 20.609375 -26.046875 Z M 20.609375 -26.046875 "/></g></g></g><g fill="#000000" fill-opacity="1"><g transform="translate(144.18728, 255.118197)"><g><path d="M 18.171875 -13.3125 C 18.972656 -13.363281 19.609375 -13.203125 20.078125 -12.828125 C 20.546875 -12.460938 20.859375 -11.976562 21.015625 -11.375 C 21.179688 -10.769531 21.179688 -10.148438 21.015625 -9.515625 C 20.859375 -8.890625 20.535156 -8.347656 20.046875 -7.890625 C 19.566406 -7.441406 18.941406 -7.1875 18.171875 -7.125 C 16.085938 -6.96875 14.035156 -6.703125 12.015625 -6.328125 C 9.992188 -5.953125 7.984375 -5.476562 5.984375 -4.90625 C 5.398438 -4.738281 4.789062 -4.769531 4.15625 -5 C 3.53125 -5.238281 3.007812 -5.613281 2.59375 -6.125 C 2.1875 -6.632812 2.007812 -7.226562 2.0625 -7.90625 C 2.394531 -11.125 2.71875 -14.335938 3.03125 -17.546875 C 3.34375 -20.765625 3.648438 -23.984375 3.953125 -27.203125 C 4.035156 -27.972656 4.3125 -28.597656 4.78125 -29.078125 C 5.25 -29.554688 5.796875 -29.867188 6.421875 -30.015625 C 7.054688 -30.171875 7.671875 -30.171875 8.265625 -30.015625 C 8.859375 -29.867188 9.335938 -29.554688 9.703125 -29.078125 C 10.078125 -28.597656 10.222656 -27.972656 10.140625 -27.203125 C 9.890625 -24.648438 9.640625 -22.101562 9.390625 -19.5625 C 9.148438 -17.019531 8.90625 -14.484375 8.65625 -11.953125 C 11.757812 -12.609375 14.929688 -13.0625 18.171875 -13.3125 Z M 18.171875 -13.3125 "/></g></g></g><g fill="#000000" fill-opacity="1"><g transform="translate(167.374372, 255.118197)"><g><path d="M 3.921875 -25.390625 C 4.003906 -26.160156 4.273438 -26.78125 4.734375 -27.25 C 5.203125 -27.71875 5.753906 -28.03125 6.390625 -28.1875 C 7.023438 -28.351562 7.644531 -28.359375 8.25 -28.203125 C 8.851562 -28.054688 9.332031 -27.742188 9.6875 -27.265625 C 10.039062 -26.785156 10.175781 -26.160156 10.09375 -25.390625 C 9.300781 -17.941406 8.6875 -10.484375 8.25 -3.015625 C 8.1875 -2.210938 7.9375 -1.570312 7.5 -1.09375 C 7.0625 -0.613281 6.53125 -0.296875 5.90625 -0.140625 C 5.289062 0.00390625 4.679688 0.00390625 4.078125 -0.140625 C 3.472656 -0.296875 2.972656 -0.613281 2.578125 -1.09375 C 2.179688 -1.570312 2.007812 -2.210938 2.0625 -3.015625 C 2.5 -10.484375 3.117188 -17.941406 3.921875 -25.390625 Z M 3.921875 -25.390625 "/></g></g></g><g fill="#000000" fill-opacity="1"><g transform="translate(179.565098, 255.118197)"><g><path d="M 17.71875 -26.546875 C 18.050781 -27.253906 18.503906 -27.71875 19.078125 -27.9375 C 19.660156 -28.164062 20.253906 -28.1875 20.859375 -28 C 21.460938 -27.820312 21.988281 -27.503906 22.4375 -27.046875 C 22.894531 -26.597656 23.195312 -26.054688 23.34375 -25.421875 C 23.5 -24.796875 23.398438 -24.125 23.046875 -23.40625 C 21.148438 -19.644531 19.140625 -15.910156 17.015625 -12.203125 C 17.867188 -11.078125 18.726562 -9.957031 19.59375 -8.84375 C 20.457031 -7.726562 21.347656 -6.617188 22.265625 -5.515625 C 22.753906 -4.910156 23 -4.28125 23 -3.625 C 23 -2.96875 22.832031 -2.359375 22.5 -1.796875 C 22.175781 -1.234375 21.742188 -0.789062 21.203125 -0.46875 C 20.671875 -0.15625 20.109375 -0.0390625 19.515625 -0.125 C 18.921875 -0.207031 18.378906 -0.550781 17.890625 -1.15625 C 16.429688 -2.914062 15.015625 -4.6875 13.640625 -6.46875 C 12.460938 -4.570312 11.269531 -2.703125 10.0625 -0.859375 C 9.613281 -0.171875 9.082031 0.257812 8.46875 0.4375 C 7.851562 0.613281 7.234375 0.613281 6.609375 0.4375 C 5.992188 0.257812 5.46875 -0.046875 5.03125 -0.484375 C 4.59375 -0.929688 4.316406 -1.457031 4.203125 -2.0625 C 4.097656 -2.664062 4.265625 -3.296875 4.703125 -3.953125 C 5.578125 -5.273438 6.425781 -6.59375 7.25 -7.90625 C 8.070312 -9.226562 8.882812 -10.550781 9.6875 -11.875 C 7.132812 -15.46875 4.742188 -19.117188 2.515625 -22.828125 C 2.097656 -23.515625 1.953125 -24.164062 2.078125 -24.78125 C 2.203125 -25.40625 2.484375 -25.9375 2.921875 -26.375 C 3.367188 -26.820312 3.898438 -27.132812 4.515625 -27.3125 C 5.128906 -27.488281 5.738281 -27.472656 6.34375 -27.265625 C 6.945312 -27.054688 7.457031 -26.625 7.875 -25.96875 C 9.519531 -23.195312 11.25 -20.460938 13.0625 -17.765625 C 14.6875 -20.679688 16.238281 -23.609375 17.71875 -26.546875 Z M 17.71875 -26.546875 "/></g></g></g><g fill="#000000" fill-opacity="1"><g transform="translate(205.017342, 255.118197)"><g/></g></g><g fill="#000000" fill-opacity="1"><g transform="translate(217.537534, 255.118197)"><g><path d="M 3.921875 -25.390625 C 4.003906 -26.160156 4.273438 -26.78125 4.734375 -27.25 C 5.203125 -27.71875 5.753906 -28.03125 6.390625 -28.1875 C 7.023438 -28.351562 7.644531 -28.359375 8.25 -28.203125 C 8.851562 -28.054688 9.332031 -27.742188 9.6875 -27.265625 C 10.039062 -26.785156 10.175781 -26.160156 10.09375 -25.390625 C 9.300781 -17.941406 8.6875 -10.484375 8.25 -3.015625 C 8.1875 -2.210938 7.9375 -1.570312 7.5 -1.09375 C 7.0625 -0.613281 6.53125 -0.296875 5.90625 -0.140625 C 5.289062 0.00390625 4.679688 0.00390625 4.078125 -0.140625 C 3.472656 -0.296875 2.972656 -0.613281 2.578125 -1.09375 C 2.179688 -1.570312 2.007812 -2.210938 2.0625 -3.015625 C 2.5 -10.484375 3.117188 -17.941406 3.921875 -25.390625 Z M 3.921875 -25.390625 "/></g></g></g><g fill="#000000" fill-opacity="1"><g transform="translate(229.728261, 255.118197)"><g><path d="M 17.84375 -25.515625 C 19.25 -24.253906 20.335938 -22.75 21.109375 -21 C 21.878906 -19.257812 22.148438 -17.425781 21.921875 -15.5 C 21.734375 -13.90625 21.21875 -12.410156 20.375 -11.015625 C 19.539062 -9.628906 18.519531 -8.429688 17.3125 -7.421875 C 15.96875 -6.265625 14.378906 -5.335938 12.546875 -4.640625 C 10.722656 -3.941406 8.972656 -3.316406 7.296875 -2.765625 C 6.828125 -2.597656 6.351562 -2.460938 5.875 -2.359375 C 5.394531 -2.265625 4.921875 -2.25 4.453125 -2.3125 C 3.796875 -2.394531 3.222656 -2.703125 2.734375 -3.234375 C 2.253906 -3.773438 2.03125 -4.375 2.0625 -5.03125 C 2.25 -12.5 2.617188 -19.988281 3.171875 -27.5 C 3.222656 -28.34375 3.503906 -28.9375 4.015625 -29.28125 C 4.523438 -29.625 5.128906 -29.800781 5.828125 -29.8125 C 6.535156 -29.832031 7.21875 -29.785156 7.875 -29.671875 C 8.257812 -29.617188 8.613281 -29.566406 8.9375 -29.515625 C 10.5625 -29.179688 12.128906 -28.71875 13.640625 -28.125 C 15.148438 -27.539062 16.550781 -26.671875 17.84375 -25.515625 Z M 15.546875 -15.171875 C 15.921875 -16.265625 15.976562 -17.265625 15.71875 -18.171875 C 15.457031 -19.078125 14.984375 -19.859375 14.296875 -20.515625 C 13.609375 -21.179688 12.796875 -21.734375 11.859375 -22.171875 C 10.929688 -22.609375 9.988281 -22.941406 9.03125 -23.171875 C 8.75 -18.660156 8.53125 -14.179688 8.375 -9.734375 C 9.382812 -10.054688 10.363281 -10.429688 11.3125 -10.859375 C 12.257812 -11.285156 13.101562 -11.832031 13.84375 -12.5 C 14.59375 -13.175781 15.160156 -14.066406 15.546875 -15.171875 Z M 15.546875 -15.171875 "/></g></g></g><g fill="#107173" fill-opacity="1"><g transform="translate(100.330904, 290.970184)"><g><path d="M 6.515625 -6.78125 L 3.96875 -6.78125 L 3.96875 0 L 2.625 0 L 2.625 -6.78125 L 0.109375 -6.78125 L 0.109375 -8 L 6.515625 -8 Z M 6.515625 -6.78125 "/></g></g></g><g fill="#107173" fill-opacity="1"><g transform="translate(109.796237, 290.970184)"><g><path d="M 2.40625 0 L 1.046875 0 L 1.046875 -8 L 2.40625 -8 Z M 2.40625 0 "/></g></g></g><g fill="#107173" fill-opacity="1"><g transform="translate(116.098842, 290.970184)"><g><path d="M 4.59375 -8.03125 C 5.15625 -8.03125 5.703125 -7.921875 6.234375 -7.703125 C 6.773438 -7.484375 7.238281 -7.179688 7.625 -6.796875 L 6.84375 -5.8125 C 6.550781 -6.125 6.207031 -6.367188 5.8125 -6.546875 C 5.414062 -6.734375 5.015625 -6.828125 4.609375 -6.828125 C 3.816406 -6.828125 3.144531 -6.554688 2.59375 -6.015625 C 2.039062 -5.472656 1.765625 -4.804688 1.765625 -4.015625 C 1.765625 -3.222656 2.039062 -2.554688 2.59375 -2.015625 C 3.144531 -1.472656 3.816406 -1.203125 4.609375 -1.203125 C 5.441406 -1.203125 6.1875 -1.515625 6.84375 -2.140625 L 7.640625 -1.25 C 7.234375 -0.851562 6.753906 -0.535156 6.203125 -0.296875 C 5.648438 -0.0546875 5.097656 0.0625 4.546875 0.0625 C 3.367188 0.0625 2.378906 -0.328125 1.578125 -1.109375 C 0.785156 -1.890625 0.390625 -2.859375 0.390625 -4.015625 C 0.390625 -5.148438 0.796875 -6.101562 1.609375 -6.875 C 2.421875 -7.644531 3.414062 -8.03125 4.59375 -8.03125 Z M 4.59375 -8.03125 "/></g></g></g><g fill="#107173" fill-opacity="1"><g transform="translate(126.911481, 290.970184)"><g><path d="M 6.390625 0 L 3.75 -3.53125 L 2.40625 -2.03125 L 2.40625 0 L 1.046875 0 L 1.046875 -8 L 2.40625 -8 L 2.40625 -3.859375 L 6.21875 -8 L 7.796875 -8 L 4.703125 -4.578125 L 8 0 Z M 6.390625 0 "/></g></g></g><g fill="#107173" fill-opacity="1"><g transform="translate(137.963892, 290.970184)"><g><path d="M 6.765625 -6.78125 L 2.40625 -6.78125 L 2.40625 -4.625 L 6.3125 -4.625 L 6.3125 -3.421875 L 2.40625 -3.421875 L 2.40625 -1.203125 L 6.90625 -1.203125 L 6.90625 0 L 1.046875 0 L 1.046875 -8 L 6.765625 -8 Z M 6.765625 -6.78125 "/></g></g></g><g fill="#107173" fill-opacity="1"><g transform="translate(148.3084, 290.970184)"><g><path d="M 6.515625 -6.78125 L 3.96875 -6.78125 L 3.96875 0 L 2.625 0 L 2.625 -6.78125 L 0.109375 -6.78125 L 0.109375 -8 L 6.515625 -8 Z M 6.515625 -6.78125 "/></g></g></g><g fill="#107173" fill-opacity="1"><g transform="translate(157.773733, 290.970184)"><g/></g></g><g fill="#107173" fill-opacity="1"><g transform="translate(163.573959, 290.970184)"><g><path d="M 1.046875 -8 L 4.515625 -8 C 5.347656 -8 6.003906 -7.820312 6.484375 -7.46875 C 6.960938 -7.113281 7.203125 -6.625 7.203125 -6 C 7.203125 -5.550781 7.078125 -5.164062 6.828125 -4.84375 C 6.578125 -4.53125 6.234375 -4.320312 5.796875 -4.21875 C 6.335938 -4.125 6.757812 -3.894531 7.0625 -3.53125 C 7.363281 -3.175781 7.515625 -2.726562 7.515625 -2.1875 C 7.515625 -1.507812 7.253906 -0.972656 6.734375 -0.578125 C 6.222656 -0.191406 5.515625 0 4.609375 0 L 1.046875 0 Z M 2.40625 -6.796875 L 2.40625 -4.6875 L 4.453125 -4.6875 C 4.878906 -4.6875 5.210938 -4.78125 5.453125 -4.96875 C 5.703125 -5.15625 5.828125 -5.414062 5.828125 -5.75 C 5.828125 -6.09375 5.707031 -6.351562 5.46875 -6.53125 C 5.226562 -6.707031 4.890625 -6.796875 4.453125 -6.796875 Z M 2.40625 -3.5 L 2.40625 -1.203125 L 4.453125 -1.203125 C 4.984375 -1.203125 5.394531 -1.300781 5.6875 -1.5 C 5.988281 -1.695312 6.140625 -1.984375 6.140625 -2.359375 C 6.140625 -2.710938 5.988281 -2.988281 5.6875 -3.1875 C 5.394531 -3.394531 4.984375 -3.5 4.453125 -3.5 Z M 2.40625 -3.5 "/></g></g></g><g fill="#107173" fill-opacity="1"><g transform="translate(174.489359, 290.970184)"><g><path d="M 1.609375 -6.875 C 2.421875 -7.644531 3.425781 -8.03125 4.625 -8.03125 C 5.820312 -8.03125 6.828125 -7.644531 7.640625 -6.875 C 8.453125 -6.101562 8.859375 -5.144531 8.859375 -4 C 8.859375 -2.851562 8.453125 -1.890625 7.640625 -1.109375 C 6.828125 -0.328125 5.820312 0.0625 4.625 0.0625 C 3.425781 0.0625 2.421875 -0.328125 1.609375 -1.109375 C 0.796875 -1.890625 0.390625 -2.851562 0.390625 -4 C 0.390625 -5.144531 0.796875 -6.101562 1.609375 -6.875 Z M 4.640625 -6.8125 C 3.847656 -6.8125 3.171875 -6.539062 2.609375 -6 C 2.046875 -5.457031 1.765625 -4.789062 1.765625 -4 C 1.765625 -3.207031 2.046875 -2.535156 2.609375 -1.984375 C 3.171875 -1.429688 3.84375 -1.15625 4.625 -1.15625 C 5.414062 -1.15625 6.085938 -1.429688 6.640625 -1.984375 C 7.203125 -2.535156 7.484375 -3.207031 7.484375 -4 C 7.484375 -4.789062 7.203125 -5.457031 6.640625 -6 C 6.085938 -6.539062 5.421875 -6.8125 4.640625 -6.8125 Z M 4.640625 -6.8125 "/></g></g></g><g fill="#107173" fill-opacity="1"><g transform="translate(186.592204, 290.970184)"><g><path d="M 1.609375 -6.875 C 2.421875 -7.644531 3.425781 -8.03125 4.625 -8.03125 C 5.820312 -8.03125 6.828125 -7.644531 7.640625 -6.875 C 8.453125 -6.101562 8.859375 -5.144531 8.859375 -4 C 8.859375 -2.851562 8.453125 -1.890625 7.640625 -1.109375 C 6.828125 -0.328125 5.820312 0.0625 4.625 0.0625 C 3.425781 0.0625 2.421875 -0.328125 1.609375 -1.109375 C 0.796875 -1.890625 0.390625 -2.851562 0.390625 -4 C 0.390625 -5.144531 0.796875 -6.101562 1.609375 -6.875 Z M 4.640625 -6.8125 C 3.847656 -6.8125 3.171875 -6.539062 2.609375 -6 C 2.046875 -5.457031 1.765625 -4.789062 1.765625 -4 C 1.765625 -3.207031 2.046875 -2.535156 2.609375 -1.984375 C 3.171875 -1.429688 3.84375 -1.15625 4.625 -1.15625 C 5.414062 -1.15625 6.085938 -1.429688 6.640625 -1.984375 C 7.203125 -2.535156 7.484375 -3.207031 7.484375 -4 C 7.484375 -4.789062 7.203125 -5.457031 6.640625 -6 C 6.085938 -6.539062 5.421875 -6.8125 4.640625 -6.8125 Z M 4.640625 -6.8125 "/></g></g></g><g fill="#107173" fill-opacity="1"><g transform="translate(198.695049, 290.970184)"><g><path d="M 6.390625 0 L 3.75 -3.53125 L 2.40625 -2.03125 L 2.40625 0 L 1.046875 0 L 1.046875 -8 L 2.40625 -8 L 2.40625 -3.859375 L 6.21875 -8 L 7.796875 -8 L 4.703125 -4.578125 L 8 0 Z M 6.390625 0 "/></g></g></g><g fill="#107173" fill-opacity="1"><g transform="translate(209.747459, 290.970184)"><g><path d="M 2.40625 0 L 1.046875 0 L 1.046875 -8 L 2.40625 -8 Z M 2.40625 0 "/></g></g></g><g fill="#107173" fill-opacity="1"><g transform="translate(216.050064, 290.970184)"><g><path d="M 7.984375 0 L 6.65625 0 L 2.40625 -5.734375 L 2.40625 0 L 1.046875 0 L 1.046875 -8 L 2.375 -8 L 6.65625 -2.25 L 6.65625 -8 L 7.984375 -8 Z M 7.984375 0 "/></g></g></g><g fill="#107173" fill-opacity="1"><g transform="translate(227.947401, 290.970184)"><g><path d="M 6.515625 -3.921875 L 7.703125 -3.921875 L 7.703125 -0.984375 C 7.285156 -0.671875 6.796875 -0.414062 6.234375 -0.21875 C 5.679688 -0.03125 5.132812 0.0625 4.59375 0.0625 C 3.414062 0.0625 2.421875 -0.328125 1.609375 -1.109375 C 0.796875 -1.890625 0.390625 -2.851562 0.390625 -4 C 0.390625 -5.144531 0.800781 -6.101562 1.625 -6.875 C 2.445312 -7.644531 3.460938 -8.03125 4.671875 -8.03125 C 5.234375 -8.03125 5.785156 -7.925781 6.328125 -7.71875 C 6.878906 -7.519531 7.351562 -7.25 7.75 -6.90625 L 6.984375 -5.921875 C 6.328125 -6.523438 5.554688 -6.828125 4.671875 -6.828125 C 3.859375 -6.828125 3.171875 -6.550781 2.609375 -6 C 2.046875 -5.457031 1.765625 -4.789062 1.765625 -4 C 1.765625 -3.195312 2.046875 -2.519531 2.609375 -1.96875 C 3.171875 -1.425781 3.863281 -1.15625 4.6875 -1.15625 C 5.300781 -1.15625 5.910156 -1.335938 6.515625 -1.703125 Z M 6.515625 -3.921875 "/></g></g></g><g fill="#107173" fill-opacity="1"><g transform="translate(239.35377, 290.970184)"><g/></g></g><g fill="#107173" fill-opacity="1"><g transform="translate(245.153995, 290.970184)"><g><path d="M 6.21875 -1.796875 L 2.1875 -1.796875 L 1.421875 0 L 0.015625 0 L 3.546875 -8 L 4.921875 -8 L 8.421875 0 L 6.984375 0 Z M 5.703125 -3 L 4.1875 -6.5625 L 2.6875 -3 Z M 5.703125 -3 "/></g></g></g><g fill="#107173" fill-opacity="1"><g transform="translate(256.434765, 290.970184)"><g><path d="M 1.046875 -8 L 4.234375 -8 C 5.242188 -8 6.023438 -7.757812 6.578125 -7.28125 C 7.128906 -6.800781 7.40625 -6.128906 7.40625 -5.265625 C 7.40625 -4.359375 7.128906 -3.65625 6.578125 -3.15625 C 6.023438 -2.65625 5.242188 -2.40625 4.234375 -2.40625 L 2.40625 -2.40625 L 2.40625 0 L 1.046875 0 Z M 2.40625 -6.78125 L 2.40625 -3.625 L 4.1875 -3.625 C 5.46875 -3.625 6.109375 -4.160156 6.109375 -5.234375 C 6.109375 -6.265625 5.46875 -6.78125 4.1875 -6.78125 Z M 2.40625 -6.78125 "/></g></g></g><g fill="#107173" fill-opacity="1"><g transform="translate(266.97337, 290.970184)"><g><path d="M 1.046875 -8 L 4.234375 -8 C 5.242188 -8 6.023438 -7.757812 6.578125 -7.28125 C 7.128906 -6.800781 7.40625 -6.128906 7.40625 -5.265625 C 7.40625 -4.359375 7.128906 -3.65625 6.578125 -3.15625 C 6.023438 -2.65625 5.242188 -2.40625 4.234375 -2.40625 L 2.40625 -2.40625 L 2.40625 0 L 1.046875 0 Z M 2.40625 -6.78125 L 2.40625 -3.625 L 4.1875 -3.625 C 5.46875 -3.625 6.109375 -4.160156 6.109375 -5.234375 C 6.109375 -6.265625 5.46875 -6.78125 4.1875 -6.78125 Z M 2.40625 -6.78125 "/></g></g></g></svg>